# Blender 5.0.1
# www.blender.org
mtllib C_Shaped.mtl
o C-Shaped
v 0.266515 0.571788 -1.750707
v 1.000000 -0.015000 -1.339834
v 1.686789 0.571788 -1.750707
v 1.100000 -0.015000 -1.339834
v -1.686788 0.571788 -1.750707
v -1.100000 -0.015000 -1.339834
v -0.266515 0.571788 -1.750707
v -1.000000 -0.015000 -1.339834
v 1.000000 -0.015000 0.100000
v -1.000000 -0.015000 0.100000
v -1.100000 -0.015000 1.100000
v 1.100000 -0.015000 1.100000
v 1.753554 0.638553 1.753554
v 1.753554 0.638553 -1.806730
v -1.753553 0.638553 1.753554
v -1.753553 0.638553 -1.806730
v -2.200000 0.785000 2.200000
v -2.200000 0.785000 -2.200000
v -2.200000 -0.785000 2.200000
v -2.200000 -0.785000 -2.200000
v 2.200000 0.785000 2.200000
v 2.200000 -0.785000 2.200000
v 2.200000 0.785000 -2.200000
v 2.200000 -0.785000 -2.200000
v -2.107107 0.785000 2.107107
v -2.107107 0.785000 -2.160284
v 0.000000 0.785000 -2.160284
v 2.107107 0.785000 -2.160284
v 2.107107 0.785000 2.107107
v 0.004494 0.781405 -2.100432
v 0.000000 0.785000 -0.700000
v 0.070618 0.728506 -1.929409
v 0.040059 0.752953 -1.984158
v 0.017911 0.770671 -2.041440
v 0.207808 0.618754 -1.787982
v 0.155100 0.660920 -1.830611
v 0.109150 0.697680 -1.877980
v -0.004494 0.781405 -2.100432
v -0.017911 0.770671 -2.041440
v -0.040059 0.752953 -1.984158
v -0.070618 0.728506 -1.929409
v -0.109150 0.697680 -1.877980
v -0.155100 0.660920 -1.830611
v -0.207808 0.618754 -1.787982
v 2.009562 0.775393 -2.062738
v 2.009562 0.775392 2.009562
v 1.988733 0.769074 -2.041910
v 1.915765 0.746939 1.915765
v 1.915765 0.746940 -1.968942
v 1.877350 0.726407 -1.930527
v 1.829322 0.700735 1.829322
v 1.778799 0.659271 -1.831975
v 1.829322 0.700735 -1.882498
v -2.009562 0.775392 2.009562
v -1.915765 0.746939 1.915765
v -1.829322 0.700735 1.829322
v -1.778798 0.659271 -1.831975
v -1.829322 0.700735 -1.882498
v -1.877350 0.726407 -1.930527
v -1.915765 0.746940 -1.968942
v -1.988733 0.769074 -2.041910
v -2.009562 0.775393 -2.062738
vn -0.0000 0.5736 0.8192
vn -0.0000 1.0000 -0.0000
vn -0.7071 0.7071 -0.0000
vn 0.7071 0.7071 -0.0000
vn -1.0000 -0.0000 -0.0000
vn -0.0000 -0.0000 1.0000
vn 1.0000 -0.0000 -0.0000
vn -0.0000 -0.0000 -1.0000
vn -0.0000 -1.0000 -0.0000
vn -0.0000 0.7071 -0.7071
vn 0.6247 0.7809 -0.0000
vn -0.6247 0.7809 -0.0000
vn -0.0000 0.7071 0.7071
vn -0.0980 0.9952 -0.0000
vn -0.2903 0.9569 -0.0000
vn -0.4714 0.8819 -0.0000
vn -0.6344 0.7730 -0.0000
vn -0.0000 0.9952 -0.0980
vn -0.0000 0.9569 -0.2903
vn -0.0000 0.8819 -0.4714
vn -0.0000 0.7730 -0.6344
vn -0.0000 0.6217 0.7833
vn 0.0011 0.6422 0.7666
vn -0.0006 0.7106 0.7036
vn 0.0013 0.7724 0.6352
vn 0.0013 0.7906 0.6123
vn 0.0003 0.7729 0.6346
vn -0.0002 0.8577 0.5142
vn 0.0013 0.8814 0.4724
vn 0.0013 0.9134 0.4071
vn -0.0010 0.8823 0.4706
vn 0.0007 0.9554 0.2953
vn 0.0008 0.9567 0.2911
vn 0.0008 0.9839 0.1788
vn -0.0025 0.9576 0.2879
vn 0.0019 0.9982 0.0598
vn -0.0000 0.9952 0.0980
vn 0.6344 0.7730 -0.0000
vn 0.4714 0.8819 -0.0000
vn 0.2903 0.9569 -0.0000
vn 0.0980 0.9952 -0.0000
vn -0.0013 0.7724 0.6352
vn -0.0000 0.6428 0.7660
vn -0.0015 0.6228 0.7824
vn 0.0006 0.7106 0.7036
vn -0.0013 0.8814 0.4724
vn -0.0002 0.7901 0.6130
vn 0.0002 0.8577 0.5142
vn -0.0008 0.9567 0.2911
vn 0.0004 0.9130 0.4079
vn -0.0007 0.9554 0.2953
vn -0.0008 0.9567 0.2910
vn 0.0004 0.9838 0.1791
vn -0.0019 0.9982 0.0598
s 0
f 1//1 2//1 3//1
f 3//1 2//1 4//1
f 5//1 6//1 7//1
f 7//1 6//1 8//1
f 4//2 2//2 9//2
f 8//2 6//2 10//2
f 10//2 6//2 11//2
f 10//2 11//2 9//2
f 9//2 11//2 12//2
f 9//2 12//2 4//2
f 4//3 12//3 3//3
f 3//3 12//3 13//3
f 3//3 13//3 14//3
f 11//4 6//4 15//4
f 15//4 6//4 5//4
f 15//4 5//4 16//4
f 17//5 18//5 19//5
f 19//5 18//5 20//5
f 21//6 17//6 22//6
f 22//6 17//6 19//6
f 23//7 21//7 24//7
f 24//7 21//7 22//7
f 18//8 23//8 20//8
f 20//8 23//8 24//8
f 25//2 26//2 18//2
f 18//2 26//2 27//2
f 18//2 27//2 23//2
f 23//2 27//2 28//2
f 23//2 28//2 21//2
f 21//2 28//2 29//2
f 21//2 29//2 17//2
f 17//2 29//2 25//2
f 17//2 25//2 18//2
f 24//9 22//9 20//9
f 20//9 22//9 19//9
f 13//10 12//10 15//10
f 15//10 12//10 11//10
f 30//11 27//11 31//11
f 32//11 33//11 31//11
f 31//11 33//11 34//11
f 31//11 34//11 30//11
f 35//11 36//11 31//11
f 31//11 36//11 37//11
f 31//11 37//11 32//11
f 9//11 2//11 31//11
f 31//11 2//11 1//11
f 31//11 1//11 35//11
f 27//12 38//12 31//12
f 31//12 38//12 39//12
f 31//12 39//12 40//12
f 40//12 41//12 31//12
f 31//12 41//12 42//12
f 31//12 42//12 43//12
f 8//12 10//12 7//12
f 7//12 10//12 31//12
f 7//12 31//12 44//12
f 44//12 31//12 43//12
f 9//13 31//13 10//13
f 29//14 28//14 45//14
f 29//14 45//14 46//14
f 46//15 45//15 47//15
f 46//15 47//15 48//15
f 47//15 49//15 48//15
f 48//16 49//16 50//16
f 48//16 50//16 51//16
f 14//17 13//17 52//17
f 52//17 13//17 51//17
f 52//17 51//17 53//17
f 53//16 51//16 50//16
f 25//18 29//18 46//18
f 25//18 46//18 54//18
f 54//19 46//19 48//19
f 54//19 48//19 55//19
f 55//20 48//20 51//20
f 55//20 51//20 56//20
f 56//21 51//21 13//21
f 56//21 13//21 15//21
f 1//22 3//22 35//22
f 35//23 3//23 14//23
f 35//24 14//24 36//24
f 36//25 14//25 52//25
f 36//26 52//26 37//26
f 37//27 52//27 53//27
f 37//28 53//28 32//28
f 32//29 53//29 50//29
f 32//30 50//30 33//30
f 33//31 50//31 49//31
f 33//32 49//32 34//32
f 34//33 49//33 47//33
f 34//34 47//34 30//34
f 30//35 47//35 45//35
f 30//36 45//36 27//36
f 27//37 45//37 28//37
f 56//38 15//38 16//38
f 16//38 57//38 56//38
f 56//38 57//38 58//38
f 56//39 58//39 55//39
f 58//39 59//39 55//39
f 55//39 59//39 60//39
f 55//40 60//40 54//40
f 54//40 60//40 61//40
f 61//40 62//40 54//40
f 54//41 62//41 26//41
f 54//41 26//41 25//41
f 43//42 57//42 16//42
f 5//43 7//43 16//43
f 16//44 7//44 44//44
f 16//45 44//45 43//45
f 41//46 59//46 58//46
f 57//42 43//42 58//42
f 58//47 43//47 42//47
f 58//48 42//48 41//48
f 39//49 61//49 60//49
f 59//46 41//46 60//46
f 60//50 41//50 40//50
f 60//51 40//51 39//51
f 27//37 26//37 62//37
f 61//52 39//52 62//52
f 62//53 39//53 38//53
f 62//54 38//54 27//54
