# Blender 5.0.1
# www.blender.org
mtllib Curve.mtl
o Cube
v -2.200000 -0.785000 -2.200000
v -2.200000 -0.785000 2.200000
v 2.200000 -0.785000 -2.200000
v 2.200000 -0.785000 2.200000
v -2.200000 0.785000 2.200000
v -2.200000 0.785000 -2.200000
v 2.200000 0.785000 -2.200000
v 2.200000 0.785000 2.200000
v -2.200000 0.785000 2.200000
v -2.200000 0.785000 -2.200000
v 2.200000 0.785000 -2.200000
v 2.200000 0.785000 2.200000
v -1.678437 0.432319 1.678437
v -1.678437 0.432319 -1.678437
v 1.678437 0.432319 -1.678437
v 1.678437 0.432319 1.678437
v -1.678437 0.432319 1.678437
v -1.678437 0.432319 -1.678437
v 1.678437 0.432319 1.678437
v -1.678437 0.432319 1.678437
v 1.678437 0.432319 -1.678437
v -1.678437 0.432319 -1.678437
v -0.405642 0.556378 0.747893
v -0.478848 0.524064 0.801415
v -0.478848 0.524064 -0.858610
v -0.405642 0.556378 -0.808578
v -0.405642 0.556378 0.747893
v -0.405642 0.556378 -0.808578
v 1.678437 0.559070 0.747893
v 1.678437 0.521390 0.826979
v 1.678437 0.529663 0.665479
v -0.478848 0.524064 0.801415
v -0.405642 0.556378 0.747893
v 1.678437 0.559070 0.747893
v -0.405642 0.556378 0.747893
v 1.678437 0.520209 -0.893059
v 1.678437 0.561255 -0.808578
v 1.678437 0.529663 -0.720041
v -0.405642 0.556378 -0.808578
v -0.478848 0.524064 -0.858610
v 1.678437 0.561255 -0.808578
v -0.405642 0.556378 -0.808578
v 1.678437 0.710749 -1.678437
v 1.886529 0.785000 -1.886529
v 1.886529 0.785000 1.886529
v 1.678437 0.710749 1.678437
v -1.678437 0.710964 -1.678437
v -1.885927 0.785000 -1.885927
v -1.885927 0.785000 1.885927
v -1.678437 0.710964 1.678437
v 1.885326 0.785000 -1.885927
v 1.677836 0.710964 -1.678437
v 1.677836 0.710964 1.678437
v 1.885326 0.785000 1.885927
v 1.341718 0.707458 -0.044713
v 1.678437 0.621781 0.555229
v 0.426044 0.707458 -0.044713
v -0.192939 0.621302 0.551984
v 1.341718 0.707458 -0.040831
v 1.678437 0.621963 -0.629602
v 0.426044 0.707458 -0.040831
v -0.193448 0.621147 -0.623795
vn -1.0000 -0.0000 -0.0000
vn 1.0000 -0.0000 -0.0000
vn -0.0000 -1.0000 -0.0000
vn -0.0000 -0.0000 -1.0000
vn -0.0000 -0.0000 1.0000
vn -0.4038 0.9148 -0.0000
vn -0.0763 0.9971 -0.0000
vn -0.0028 0.8850 0.4656
vn -0.0000 0.9946 0.1040
vn -0.0041 0.8788 -0.4771
vn -0.0000 0.9938 -0.1112
vn -0.3361 0.9418 -0.0000
vn -0.0000 1.0000 -0.0000
vn 0.3361 0.9418 -0.0000
vn -0.0000 0.9418 0.3361
vn -0.0000 0.9418 -0.3361
vn 0.2789 0.7818 0.5577
vn 0.2789 0.7818 -0.5577
vn -0.0003 0.9899 0.1421
vn -0.0006 0.9894 -0.1449
vn -0.1379 0.9904 -0.0001
vn 0.2463 0.9692 0.0001
vn -0.0010 0.9502 0.3116
vn -0.2919 0.9564 -0.0000
vn -0.0018 0.9457 -0.3251
vt 0.375000 0.000000
vt 0.625000 0.000000
vt 0.625000 0.250000
vt 0.375000 0.250000
vt 0.375000 0.500000
vt 0.625000 0.500000
vt 0.625000 0.750000
vt 0.375000 0.750000
vt 0.625000 1.000000
vt 0.375000 1.000000
vt 0.125000 0.500000
vt 0.125000 0.750000
vt 0.875000 0.500000
vt 0.875000 0.750000
vt 0.000000 0.000000
vt 0.404634 0.279634
vt 0.595366 0.279634
vt 0.595366 0.279634
vt 0.404634 0.279634
vt 0.595366 0.470366
vt 0.404634 0.470366
vt 0.404634 0.470366
vt 0.451215 0.347793
vt 0.545535 0.348833
vt 0.542494 0.351952
vt 0.454058 0.352170
vt 0.454058 0.352170
vt 0.542494 0.470366
vt 0.545864 0.470366
vt 0.537811 0.470366
vt 0.449258 0.470366
vt 0.454417 0.470366
vt 0.459089 0.470366
vt 0.451215 0.347793
vt 0.607189 0.482189
vt 0.392811 0.479233
vt 0.392845 0.267845
vt 0.607155 0.267845
vt 0.392845 0.479174
vt 0.404634 0.470332
vt 0.595366 0.470332
vt 0.607155 0.482121
vt 0.497460 0.451234
vt 0.497460 0.399207
vt 0.531363 0.364038
vt 0.531547 0.470366
vt 0.497680 0.399207
vt 0.497680 0.451234
vt 0.464437 0.470366
vt 0.464557 0.364133
s 0
f 1/1/1 2/2/1 5/3/1 6/4/1
f 7/5/2 8/6/2 4/7/2 3/8/2
f 3/8/3 4/7/3 2/9/3 1/10/3
f 6/11/4 7/5/4 3/8/4 1/12/4
f 8/6/5 5/13/5 2/14/5 4/7/5
f 9/15/5 10/15/5 6/15/5 5/15/5
f 10/4/5 11/5/5 7/5/5 6/4/5
f 12/6/5 9/3/5 5/3/5 8/6/5
f 11/15/5 12/15/5 8/15/5 7/15/5
f 14/16/5 13/17/5 17/18/5 18/19/5
f 13/18/5 16/20/5 19/20/5 20/18/5 17/18/5
f 15/21/5 14/16/5 18/16/5 22/19/5 21/22/5
f 25/23/6 24/24/6 23/25/6 26/26/6
f 20/18/7 24/24/7 25/23/7 22/19/7 18/19/7 17/18/7
f 26/26/5 23/25/5 27/25/5 28/27/5
f 29/28/2 30/29/2 31/30/2
f 29/28/8 33/25/8 32/24/8 30/29/8
f 20/18/9 19/20/9 30/29/9 32/24/9 24/24/9
f 23/25/5 24/24/5 32/24/5 33/25/5
f 23/25/5 33/25/5 29/28/5 34/28/5 35/25/5 27/25/5
f 36/31/2 37/32/2 38/33/2
f 36/31/10 40/34/10 39/27/10 37/32/10
f 16/20/2 15/21/2 21/21/2 36/31/2 38/33/2 31/30/2 30/29/2 19/20/2
f 21/22/11 22/19/11 25/23/11 40/34/11 36/31/11
f 25/23/5 26/26/5 39/27/5 40/34/5
f 37/32/5 39/27/5 26/27/5 28/27/5 42/27/5 41/32/5
f 45/35/12 44/36/12 43/21/12 46/20/12
f 44/36/13 45/35/13 12/6/13 11/5/13
f 46/20/1 43/21/1 15/21/1 16/20/1
f 50/18/14 47/16/14 48/37/14 49/38/14
f 51/39/15 48/37/15 47/16/15 52/40/15
f 53/41/16 50/18/16 49/38/16 54/42/16
f 47/16/2 50/18/2 13/17/2 14/16/2
f 49/38/13 48/37/13 10/4/13 9/3/13
f 43/21/5 52/40/5 47/16/5 14/16/5 15/21/5
f 48/37/13 51/39/13 44/36/13 11/5/13 10/4/13
f 50/18/4 53/41/4 46/20/4 16/20/4 13/17/4
f 45/35/13 54/42/13 49/38/13 9/3/13 12/6/13
f 43/21/17 44/36/17 51/39/17 52/40/17
f 45/35/18 46/20/18 53/41/18 54/42/18
f 55/43/19 57/44/19 58/45/19 56/46/19
f 61/47/20 59/48/20 60/49/20 62/50/20
f 62/50/21 58/45/21 57/44/21 61/47/21
f 56/46/22 60/49/22 59/48/22 55/43/22
f 29/28/2 31/30/2 38/33/2 37/32/2 41/32/2 60/49/2 56/46/2 34/28/2
f 35/25/23 34/28/23 56/46/23 58/45/23
f 61/47/3 57/44/3 55/43/3 59/48/3
f 28/27/24 27/25/24 35/25/24 58/45/24 62/50/24 42/27/24
f 41/32/25 42/27/25 62/50/25 60/49/25
